# File created by Blade
# Date/Time:  Tue Jan 27 17:01:45 2015
#---------------------------------------------------------
:version 1.10
:name HOM
:units
  mass 1.0
  length 1.000000
  angle deg
:documentation
     Acclaim Skeleton File
:root
   axis xyz
   order TX TY TZ RX RY RZ
   position 0.000000 0.000000 0.000000
   orientation 0 0 0
:bonedata
   begin
      id 1
      name Spine_dum
      direction 0.000000 1.000000 0.000000
      length 7.539951
      axis 0.0 0.0 0.0 xyz
   end
   begin
      id 2
      name LeftUpLeg_dum
      direction 1.000000 0.000000 0.000000
      length 3.345476
      axis 0.0 0.0 0.0 xyz
   end
   begin
      id 3
      name RightUpLeg_dum
      direction -1.000000 0.000000 0.000000
      length 3.345476
      axis 0.0 0.0 0.0 xyz
   end
   begin
      id 4
      name Spine
      direction 0.000000 1.000000 0.000000
      length 0.000000
      axis 0.0 0.0 0.0 xyz
      dof rx ry rz
   end
   begin
      id 5
      name Spine_dum1
      direction 0.000000 1.000000 0.000000
      length 15.093809
      axis 0.0 0.0 0.0 xyz
   end
   begin
      id 6
      name Spine_dum2
      direction 0.000000 1.000000 0.000000
      length 9.738928
      axis 0.0 0.0 0.0 xyz
   end
   begin
      id 7
      name Spine_dum3
      direction 0.000000 1.000000 0.000000
      length 9.738928
      axis 0.0 0.0 0.0 xyz
   end
   begin
      id 8
      name Head
      direction 0.000000 1.000000 0.000000
      length 4.527550
      axis 0.0 0.0 0.0 xyz
      dof rx ry rz
   end
   begin
      id 9
      name LeftShoulder
      direction 1.000000 0.000000 0.000000
      length 7.084015
      axis 0.0 0.0 -90.0 xyz
      dof rx ry rz
   end
   begin
      id 10
      name LeftArm
      direction 1.000000 0.000000 0.000000
      length 10.259319
      axis 0.0 0.0 -90.0 xyz
      dof rx ry rz
   end
   begin
      id 11
      name LeftForeArm
      direction 1.000000 0.000000 0.000000
      length 9.896984
      axis 0.0 0.0 -90.0 xyz
      dof ry rz rx
   end
   begin
      id 12
      name LeftHand
      direction 0.000000 0.000000 0.000000
      length 0.000000
      axis 0.0 0.0 -90.0 xyz
      dof rx ry rz
   end
   begin
      id 13
      name LeftHand_dum1
      direction 0.000000 0.000000 0.000000
      length 0.000000
      axis 0.0 0.0 -90.0 xyz
   end
   begin
      id 14
      name LeftHand_dum2
      direction 1.000000 0.000000 0.000000
      length 3.937000
      axis 0.0 0.0 -90.0 xyz
   end
   begin
      id 15
      name LeftHandThumb1
      direction 0.000000 0.000000 1.000000
      length 3.937000
      axis 0.0 0.0 -90.0 xyz
      dof rx rz ry
   end
   begin
      id 16
      name RightShoulder
      direction -1.000000 0.000000 0.000000
      length 7.084015
      axis 0.0 0.0 90.0 xyz
      dof rx ry rz
   end
   begin
      id 17
      name RightArm
      direction -1.000000 0.000000 0.000000
      length 10.259319
      axis 0.0 0.0 90.0 xyz
      dof rx ry rz
   end
   begin
      id 18
      name RightForeArm
      direction -1.000000 0.000000 0.000000
      length 9.896984
      axis 0.0 0.0 90.0 xyz
      dof ry rz rx
   end
   begin
      id 19
      name RightHand
      direction 0.000000 0.000000 0.000000
      length 0.000000
      axis 0.0 0.0 90.0 xyz
      dof rx ry rz
   end
   begin
      id 20
      name RightHand_dum1
      direction 0.000000 0.000000 0.000000
      length 0.000000
      axis 0.0 0.0 90.0 xyz
   end
   begin
      id 21
      name RightHand_dum2
      direction -1.000000 0.000000 0.000000
      length 3.937000
      axis 0.0 0.0 90.0 xyz
   end
   begin
      id 22
      name RightHandThumb1
      direction 0.000000 0.000000 1.000000
      length 3.937000
      axis 0.0 0.0 90.0 xyz
      dof rx rz ry
   end
   begin
      id 23
      name LeftUpLeg
      direction 0.000000 -1.000000 0.000000
      length 19.114733
      axis 0.0 0.0 0.0 xyz
      dof rx ry rz
   end
   begin
      id 24
      name LeftLeg
      direction 0.000000 -1.000000 0.000000
      length 16.045604
      axis 0.0 0.0 0.0 xyz
      dof rx ry rz
   end
   begin
      id 25
      name LeftFoot
      direction 0.000000 -0.258819 0.965926
      length 5.543155
      axis 15.0 0.0 0.0 xyz
      dof rx ry rz
   end
   begin
      id 26
      name LeftToeBase
      direction 0.000000 0.000000 1.000000
      length 2.952750
      axis 0.0 0.0 0.0 xyz
      dof rx ry rz
   end
   begin
      id 27
      name RightUpLeg
      direction 0.000000 -1.000000 0.000000
      length 19.114733
      axis 0.0 0.0 0.0 xyz
      dof rx ry rz
   end
   begin
      id 28
      name RightLeg
      direction 0.000000 -1.000000 0.000000
      length 16.045604
      axis 0.0 0.0 0.0 xyz
      dof rx ry rz
   end
   begin
      id 29
      name RightFoot
      direction 0.000000 -0.258819 0.965926
      length 5.543155
      axis 15.0 0.0 0.0 xyz
      dof rx ry rz
   end
   begin
      id 30
      name RightToeBase
      direction 0.000000 0.000000 1.000000
      length 2.952750
      axis 0.0 0.0 0.0 xyz
      dof rx ry rz
   end
:hierarchy
   begin
      root Spine_dum LeftUpLeg_dum RightUpLeg_dum
      Spine_dum Spine
      LeftUpLeg_dum LeftUpLeg
      RightUpLeg_dum RightUpLeg
      Spine Spine_dum1 Spine_dum2 Spine_dum3
      Spine_dum1 Head
      Spine_dum2 LeftShoulder
      Spine_dum3 RightShoulder
      LeftShoulder LeftArm
      LeftArm LeftForeArm
      LeftForeArm LeftHand
      LeftHand LeftHand_dum1 LeftHand_dum2
      LeftHand_dum1 LeftHandThumb1
      RightShoulder RightArm
      RightArm RightForeArm
      RightForeArm RightHand
      RightHand RightHand_dum1 RightHand_dum2
      RightHand_dum1 RightHandThumb1
      LeftUpLeg LeftLeg
      LeftLeg LeftFoot
      LeftFoot LeftToeBase
      RightUpLeg RightLeg
      RightLeg RightFoot
      RightFoot RightToeBase
   end

# File created by Blade
# Date/Time:  Tue Jan 27 17:01:38 2015
# Frame Rate: 120.000 fps
#------------------------------------------------------
:FULLY-SPECIFIED
:DEGREES
3019
root -1.450408 36.888535 5.938694 10.196855 13.809676 0.488422
Spine -11.385404 18.461026 -8.142491
Head 6.632323 -0.598024 7.072780
LeftShoulder -14.096150 -8.950143 0.698076
LeftArm -21.856484 -52.493470 -40.547425
LeftForeArm -64.827896 -0.000000 111.957477
LeftHand 4.676631 -0.000000 2.300002
LeftHandThumb1 -26.253704 0.000000 33.147579
RightShoulder -3.670681 -24.525377 -3.592274
RightArm 22.781040 -32.809391 58.426614
RightForeArm -148.261051 -0.000000 36.188158
RightHand -1.889742 -0.000000 -2.133290
RightHandThumb1 -24.326973 -0.000000 -32.862282
LeftUpLeg -8.785676 5.637762 5.314020
LeftLeg 6.841621 -0.000000 -0.000000
LeftFoot -13.039511 -1.245323 -20.756930
LeftToeBase 14.942088 -0.000000 -0.000000
RightUpLeg -6.828082 -16.108088 0.769900
RightLeg 9.904907 -0.000000 -0.000000
RightFoot -19.228101 -9.879062 15.910283
RightToeBase 10.864587 -0.000000 -0.000000
3020
root -1.444617 36.888657 5.927228 10.175611 13.783783 0.469909
Spine -11.371829 18.455268 -8.121067
Head 6.615059 -0.651757 6.948466
LeftShoulder -14.165126 -8.921561 0.668371
LeftArm -21.588558 -52.624142 -40.848892
LeftForeArm -64.628079 -0.000000 114.216402
LeftHand 4.950512 0.000000 2.466326
LeftHandThumb1 -26.253704 0.000000 33.147579
RightShoulder -3.667903 -24.523335 -3.611519
RightArm 22.779875 -32.880437 58.412583
RightForeArm -148.209447 -0.000000 36.221878
RightHand -1.838319 -0.000000 -2.356995
RightHandThumb1 -24.326973 -0.000000 -32.862282
LeftUpLeg -8.788108 5.653159 5.316418
LeftLeg 6.862613 -0.000000 -0.000000
LeftFoot -13.058401 -1.241900 -20.758129
LeftToeBase 14.949617 -0.000000 -0.000000
RightUpLeg -6.840248 -16.081674 0.770307
RightLeg 9.928313 -0.000000 -0.000000
RightFoot -19.224609 -9.878473 15.913614
RightToeBase 10.873980 -0.000000 -0.000000
3021
root -1.440611 36.889156 5.921423 10.171159 13.730788 0.456746
Spine -11.413905 18.455207 -8.153527
Head 6.637281 -0.636960 6.961048
LeftShoulder -14.254805 -8.848870 0.698408
LeftArm -21.288193 -52.795838 -41.175454
LeftForeArm -64.217676 -0.000000 116.391714
LeftHand 5.130216 0.000000 2.635462
LeftHandThumb1 -26.253704 0.000000 33.147579
RightShoulder -3.679536 -24.575811 -3.615506
RightArm 22.801591 -32.950984 58.430550
RightForeArm -148.152984 -0.000000 36.254635
RightHand -1.871862 0.000000 -2.337093
RightHandThumb1 -24.326973 -0.000000 -32.862282
LeftUpLeg -8.784264 5.719830 5.310843
LeftLeg 6.862696 -0.000000 -0.000000
LeftFoot -13.060836 -1.260493 -20.775586
LeftToeBase 14.957421 -0.000000 -0.000000
RightUpLeg -6.858083 -16.020708 0.768603
RightLeg 9.941727 -0.000000 -0.000000
RightFoot -19.208783 -9.891886 15.909678
RightToeBase 10.826979 -0.000000 -0.000000
3022
root -1.435965 36.889880 5.913932 10.178246 13.699123 0.447287
Spine -11.456184 18.442718 -8.179906
Head 6.636018 -0.610652 6.951736
LeftShoulder -14.344265 -8.759972 0.716656
LeftArm -20.946584 -53.012675 -41.520091
LeftForeArm -63.742605 -0.000000 118.498160
LeftHand 5.300163 0.000000 2.924652
LeftHandThumb1 -26.253704 0.000000 33.147579
RightShoulder -3.704890 -24.588267 -3.598863
RightArm 22.781347 -33.043868 58.439336
RightForeArm -148.238725 -0.000000 36.316744
RightHand -1.818846 -0.000000 -2.275760
RightHandThumb1 -24.326973 -0.000000 -32.862282
LeftUpLeg -8.802758 5.757645 5.302726
LeftLeg 6.873067 -0.000000 -0.000000
LeftFoot -13.064392 -1.265453 -20.738531
LeftToeBase 14.955777 -0.000000 -0.000000
RightUpLeg -6.885271 -15.994646 0.769010
RightLeg 9.950552 -0.000000 -0.000000
RightFoot -19.198778 -9.891378 15.916660
RightToeBase 10.834293 -0.000000 -0.000000
3023
root -1.431806 36.891125 5.906588 10.177190 13.653441 0.446639
Spine -11.481989 18.428977 -8.202647
Head 6.633473 -0.600160 6.838655
LeftShoulder -14.420447 -8.695239 0.707248
LeftArm -20.665511 -53.254294 -41.731325
LeftForeArm -63.092448 -0.000000 120.502503
LeftHand 5.524413 -0.000000 3.174401
LeftHandThumb1 -26.253704 0.000000 33.147579
RightShoulder -3.704272 -24.597730 -3.605668
RightArm 22.763866 -33.105211 58.487158
RightForeArm -148.317682 -0.000000 36.331141
RightHand -1.786689 -0.000000 -2.361235
RightHandThumb1 -24.326973 -0.000000 -32.862282
LeftUpLeg -8.809185 5.788853 5.288408
LeftLeg 6.886505 -0.000000 -0.000000
LeftFoot -13.062755 -1.265411 -20.765785
LeftToeBase 14.942162 -0.000000 -0.000000
RightUpLeg -6.906817 -15.957980 0.758099
RightLeg 9.966050 -0.000000 -0.000000
RightFoot -19.188815 -9.889936 15.912084
RightToeBase 10.856874 -0.000000 -0.000000
3024
root -1.427493 36.891706 5.899425 10.180992 13.587683 0.445417
Spine -11.522737 18.437890 -8.235569
Head 6.663380 -0.592884 6.824170
LeftShoulder -14.499320 -8.611950 0.741302
LeftArm -20.365386 -53.526960 -42.024842
LeftForeArm -62.273126 -0.000000 122.432850
LeftHand 5.729348 -0.000000 3.499421
LeftHandThumb1 -26.253704 0.000000 33.147579
RightShoulder -3.695881 -24.631961 -3.613447
RightArm 22.780640 -33.178184 58.499064
RightForeArm -148.291483 -0.000000 36.323445
RightHand -1.827167 -0.000000 -2.349328
RightHandThumb1 -24.326973 -0.000000 -32.862282
LeftUpLeg -8.816089 5.857853 5.268824
LeftLeg 6.898146 -0.000000 -0.000000
LeftFoot -13.070606 -1.270308 -20.753239
LeftToeBase 14.973287 -0.000000 -0.000000
RightUpLeg -6.932234 -15.887655 0.743896
RightLeg 9.976890 -0.000000 -0.000000
RightFoot -19.186670 -9.895102 15.928911
RightToeBase 10.863367 -0.000000 -0.000000
3025
root -1.421671 36.893045 5.890387 10.196111 13.504104 0.448598
Spine -11.569079 18.454985 -8.267877
Head 6.668455 -0.529862 6.747669
LeftShoulder -14.569676 -8.541415 0.753345
LeftArm -20.142647 -53.846208 -42.192999
LeftForeArm -61.442038 -0.000000 124.263102
LeftHand 5.936139 -0.000000 3.840752
LeftHandThumb1 -26.253704 0.000000 33.147579
RightShoulder -3.688233 -24.650654 -3.615020
RightArm 22.779862 -33.252467 58.497736
RightForeArm -148.305584 -0.000000 36.341104
RightHand -1.803261 -0.000000 -2.447855
RightHandThumb1 -24.326973 -0.000000 -32.862282
LeftUpLeg -8.831511 5.915271 5.239166
LeftLeg 6.908642 -0.000000 -0.000000
LeftFoot -13.073259 -1.239627 -20.746643
LeftToeBase 14.951276 -0.000000 -0.000000
RightUpLeg -6.968786 -15.797801 0.725504
RightLeg 9.978992 -0.000000 -0.000000
RightFoot -19.166213 -9.934176 15.914510
RightToeBase 10.824192 -0.000000 -0.000000
3026
root -1.416906 36.894114 5.883739 10.193629 13.457426 0.444295
Spine -11.591281 18.435142 -8.274563
Head 6.682716 -0.450115 6.645484
LeftShoulder -14.633633 -8.501158 0.759471
LeftArm -19.981709 -54.145408 -42.301301
LeftForeArm -60.599892 -0.000000 125.992111
LeftHand 6.202288 0.000000 4.110037
LeftHandThumb1 -26.253704 0.000000 33.147579
RightShoulder -3.686454 -24.650054 -3.618322
RightArm 22.769231 -33.348708 58.502932
RightForeArm -148.367250 -0.000000 36.348129
RightHand -1.754964 -0.000000 -2.455132
RightHandThumb1 -24.326973 -0.000000 -32.862282
LeftUpLeg -8.840404 5.959540 5.225410
LeftLeg 6.929343 -0.000000 -0.000000
LeftFoot -13.090289 -1.239832 -20.742897
LeftToeBase 14.995105 -0.000000 -0.000000
RightUpLeg -6.991716 -15.770925 0.714213
RightLeg 10.004300 -0.000000 -0.000000
RightFoot -19.149833 -9.914277 15.909964
RightToeBase 10.851924 -0.000000 -0.000000
3027
root -1.412388 36.895405 5.872094 10.224084 13.420823 0.454941
Spine -11.637074 18.394166 -8.289298
Head 6.715284 -0.410209 6.538402
LeftShoulder -14.698572 -8.411431 0.753860
LeftArm -19.759582 -54.497164 -42.445958
LeftForeArm -59.812949 0.000000 127.578341
LeftHand 6.448561 -0.000000 4.356772
LeftHandThumb1 -26.253704 0.000000 33.147579
RightShoulder -3.657033 -24.653906 -3.656530
RightArm 22.759923 -33.445340 58.527024
RightForeArm -148.335090 -0.000000 36.349876
RightHand -1.740314 -0.000000 -2.300035
RightHandThumb1 -24.326973 -0.000000 -32.862282
LeftUpLeg -8.895640 5.963797 5.196450
LeftLeg 6.967600 -0.000000 -0.000000
LeftFoot -13.089346 -1.207112 -20.731328
LeftToeBase 14.943959 -0.000000 -0.000000
RightUpLeg -7.046700 -15.729392 0.701446
RightLeg 10.014848 -0.000000 -0.000000
RightFoot -19.152050 -9.919918 15.927300
RightToeBase 10.835442 -0.000000 -0.000000
3028
root -1.406562 36.896381 5.865623 10.228957 13.349120 0.454401
Spine -11.669086 18.387574 -8.303093
Head 6.717654 -0.338341 6.480080
LeftShoulder -14.776448 -8.342510 0.773982
LeftArm -19.587702 -54.869278 -42.575201
LeftForeArm -59.134612 0.000000 129.102675
LeftHand 6.531422 -0.000000 4.701571
LeftHandThumb1 -26.253704 0.000000 33.147579
RightShoulder -3.656808 -24.682503 -3.642486
RightArm 22.760438 -33.468957 58.534668
RightForeArm -148.311841 0.000000 36.344181
RightHand -1.708162 -0.000000 -2.403530
RightHandThumb1 -24.326973 -0.000000 -32.862282
LeftUpLeg -8.901118 6.007650 5.176542
LeftLeg 6.980977 -0.000000 -0.000000
LeftFoot -13.109390 -1.195949 -20.736478
LeftToeBase 14.978586 -0.000000 -0.000000
RightUpLeg -7.073047 -15.679992 0.685667
RightLeg 10.025772 -0.000000 -0.000000
RightFoot -19.131328 -9.923079 15.899348
RightToeBase 10.842054 -0.000000 -0.000000
3029
root -1.403517 36.898375 5.858075 10.244687 13.262361 0.444597
Spine -11.720804 18.403327 -8.319407
Head 6.737451 -0.258348 6.417955
LeftShoulder -14.851752 -8.280102 0.796387
LeftArm -19.359804 -55.237336 -42.720371
LeftForeArm -58.417792 0.000000 130.452204
LeftHand 6.842705 -0.000000 4.821011
LeftHandThumb1 -26.253704 0.000000 33.147579
RightShoulder -3.637116 -24.692538 -3.636018
RightArm 22.713601 -33.474404 58.581501
RightForeArm -148.388219 -0.000000 36.339689
RightHand -1.624872 -0.000000 -2.572985
RightHandThumb1 -24.326973 -0.000000 -32.862282
LeftUpLeg -8.924350 6.072279 5.164282
LeftLeg 7.002978 -0.000000 -0.000000
LeftFoot -13.110419 -1.163160 -20.704626
LeftToeBase 14.930602 -0.000000 -0.000000
RightUpLeg -7.098310 -15.549249 0.677905
RightLeg 10.000747 -0.000000 -0.000000
RightFoot -19.105702 -9.951243 15.927975
RightToeBase 10.849819 -0.000000 -0.000000
3030
root -1.397895 36.898503 5.852010 10.249518 13.190162 0.436807
Spine -11.757971 18.405645 -8.313333
Head 6.775163 -0.210795 6.298354
LeftShoulder -14.939580 -8.232472 0.827652
LeftArm -19.132262 -55.570083 -42.908689
LeftForeArm -57.775214 -0.000000 131.667011
LeftHand 7.020109 -0.000000 5.129871
LeftHandThumb1 -26.253704 0.000000 33.147579
RightShoulder -3.623329 -24.719378 -3.647143
RightArm 22.712054 -33.514577 58.591948
RightForeArm -148.443533 0.000000 36.305433
RightHand -1.674136 -0.000000 -2.578069
RightHandThumb1 -24.326973 -0.000000 -32.862282
LeftUpLeg -8.931774 6.125621 5.150795
LeftLeg 7.019933 -0.000000 -0.000000
LeftFoot -13.132735 -1.163230 -20.718815
LeftToeBase 14.957925 -0.000000 -0.000000
RightUpLeg -7.120180 -15.485577 0.668418
RightLeg 10.001809 -0.000000 -0.000000
RightFoot -19.095337 -9.949364 15.938809
RightToeBase 10.888844 -0.000000 -0.000000
3031
root -1.392793 36.898606 5.844856 10.249101 13.095410 0.443647
Spine -11.777897 18.436466 -8.327735
Head 6.789039 -0.166009 6.210209
LeftShoulder -15.063084 -8.125380 0.825571
LeftArm -18.640134 -55.961153 -43.292600
LeftForeArm -57.176162 0.000000 132.758857
LeftHand 7.082806 -0.000000 5.308404
LeftHandThumb1 -26.253704 0.000000 33.147579
RightShoulder -3.602252 -24.709501 -3.658715
RightArm 22.680771 -33.582223 58.609333
RightForeArm -148.456619 -0.000000 36.295165
RightHand -1.723152 -0.000000 -2.473672
RightHandThumb1 -24.326973 -0.000000 -32.862282
LeftUpLeg -8.929211 6.198958 5.121134
LeftLeg 7.037107 -0.000000 -0.000000
LeftFoot -13.145181 -1.163170 -20.735989
LeftToeBase 14.966118 -0.000000 -0.000000
RightUpLeg -7.156909 -15.418927 0.643916
RightLeg 10.043740 -0.000000 -0.000000
RightFoot -19.098831 -9.955116 15.897386
RightToeBase 10.850249 -0.000000 -0.000000
